<?xml version="1.0" encoding="UTF-8"?>
<svg id="Layer_2" data-name="Layer 2" xmlns="http://www.w3.org/2000/svg" viewBox="0 0 28 38">
  <defs>
    <style>
      .cls-1 {
        fill: #4285f4;
      }

      .cls-2 {
        fill: #fbbc05;
      }

      .cls-3 {
        fill: #34a853;
      }

      .cls-4 {
        fill: #ea4335;
      }
    </style>
  </defs>
  <g id="Layer_1-2" data-name="Layer 1">
    <g>
      <path class="cls-2" d="M3,17.55H0c0,3.25,1.03,6.11,3.07,8.57l2.39-1.73c-1.64-1.91-2.45-4.19-2.45-6.84Z"/>
      <g>
        <path class="cls-4" d="M24.4,26.75c2.4-2.6,3.6-5.67,3.6-9.2h-3c0,3.03-1.08,5.58-3.22,7.65-2.15,2.07-4.75,3.1-7.79,3.1s-5.63-1.03-7.77-3.1c-.27-.26-.52-.53-.76-.81l-2.39,1.73c.17,.21,.34,.42,.53,.63,2.4,2.6,5.37,4.08,8.9,4.45h0s3,0,3,0h0c3.53-.38,6.5-1.86,8.9-4.46Z"/>
        <rect class="cls-3" x="12.5" y="31.21" width="3" height="6.79"/>
      </g>
    </g>
    <path class="cls-1" d="M17.58,1.46c-.98-.97-2.18-1.46-3.58-1.46s-2.59,.49-3.58,1.46c-.98,.97-1.47,2.15-1.47,3.54v12.55c0,1.47,.48,2.72,1.45,3.75,.97,1.03,2.17,1.55,3.6,1.55s2.63-.52,3.6-1.55c.97-1.03,1.45-2.28,1.45-3.75V5c0-1.39-.49-2.57-1.47-3.54Z"/>
  </g>
</svg>