<svg width="2720" height="143" viewBox="0 0 2720 143" fill="none" xmlns="http://www.w3.org/2000/svg">
<path d="M1081 143H0C0 143 55.5514 22.9811 91.0843 12.7977C126.617 2.61428 137.627 21.5263 172.159 21.5263C206.691 21.5263 200.686 4.43275 227.711 0.432121C254.736 -3.56851 272.252 21.5263 302.28 21.5263C332.307 21.5263 333.809 0.432121 359.833 0.432121C385.857 0.432121 407.377 16.0709 432.4 21.5264C457.423 26.9818 450.917 12.7977 493.456 12.7977C535.996 12.7977 536.997 25.527 565.023 29.5276C593.049 33.5282 604.059 21.5263 621.575 21.5263C639.091 21.5263 643.095 28.8002 662.613 29.5276C682.131 30.255 687.636 20.799 725.671 21.5263C763.706 22.2537 773.215 44.0753 802.242 46.6212C831.269 49.1671 807.747 29.5276 855.792 29.5276C903.836 29.5276 902.335 38.6199 932.362 46.6212C962.39 54.6225 956.385 29.5276 1001.93 41.1658C1047.47 52.804 1081 143 1081 143Z" fill="#3C51BA"/>
<path d="M2059 143H978C978 143 1033.55 22.9811 1069.08 12.7977C1104.62 2.61428 1115.63 21.5263 1150.16 21.5263C1184.69 21.5263 1178.69 4.43275 1205.71 0.432121C1232.74 -3.56851 1250.25 21.5263 1280.28 21.5263C1310.31 21.5263 1311.81 0.432121 1337.83 0.432121C1363.86 0.432121 1385.38 16.0709 1410.4 21.5264C1435.42 26.9818 1428.92 12.7977 1471.46 12.7977C1514 12.7977 1515 25.527 1543.02 29.5276C1571.05 33.5282 1582.06 21.5263 1599.58 21.5263C1617.09 21.5263 1621.09 28.8002 1640.61 29.5276C1660.13 30.255 1665.64 20.799 1703.67 21.5263C1741.71 22.2537 1751.22 44.0753 1780.24 46.6212C1809.27 49.1671 1785.75 29.5276 1833.79 29.5276C1881.84 29.5276 1880.33 38.6199 1910.36 46.6212C1940.39 54.6225 1934.38 29.5276 1979.93 41.1658C2025.47 52.804 2059 143 2059 143Z" fill="#3C51BA"/>
<path d="M2059 143H978C978 143 1033.55 22.9811 1069.08 12.7977C1104.62 2.61428 1115.63 21.5263 1150.16 21.5263C1184.69 21.5263 1178.69 4.43275 1205.71 0.432121C1232.74 -3.56851 1250.25 21.5263 1280.28 21.5263C1310.31 21.5263 1311.81 0.432121 1337.83 0.432121C1363.86 0.432121 1385.38 16.0709 1410.4 21.5264C1435.42 26.9818 1428.92 12.7977 1471.46 12.7977C1514 12.7977 1515 25.527 1543.02 29.5276C1571.05 33.5282 1582.06 21.5263 1599.58 21.5263C1617.09 21.5263 1621.09 28.8002 1640.61 29.5276C1660.13 30.255 1665.64 20.799 1703.67 21.5263C1741.71 22.2537 1751.22 44.0753 1780.24 46.6212C1809.27 49.1671 1785.75 29.5276 1833.79 29.5276C1881.84 29.5276 1880.33 38.6199 1910.36 46.6212C1940.39 54.6225 1934.38 29.5276 1979.93 41.1658C2025.47 52.804 2059 143 2059 143Z" fill="#3C51BA"/>
<path d="M2720 143H1639C1639 143 1694.55 22.9811 1730.08 12.7977C1765.62 2.61428 1776.63 21.5263 1811.16 21.5263C1845.69 21.5263 1839.69 4.43275 1866.71 0.432121C1893.74 -3.56851 1911.25 21.5263 1941.28 21.5263C1971.31 21.5263 1972.81 0.432121 1998.83 0.432121C2024.86 0.432121 2046.38 16.0709 2071.4 21.5264C2096.42 26.9818 2089.92 12.7977 2132.46 12.7977C2175 12.7977 2176 25.527 2204.02 29.5276C2232.05 33.5282 2243.06 21.5263 2260.58 21.5263C2278.09 21.5263 2282.09 28.8002 2301.61 29.5276C2321.13 30.255 2326.64 20.799 2364.67 21.5263C2402.71 22.2537 2412.22 44.0753 2441.24 46.6212C2470.27 49.1671 2446.75 29.5276 2494.79 29.5276C2542.84 29.5276 2541.33 38.6199 2571.36 46.6212C2601.39 54.6225 2595.38 29.5276 2640.93 41.1658C2686.47 52.804 2720 143 2720 143Z" fill="#3C51BA"/>
</svg>
